<?xml version="1.0" encoding="UTF-8"?>
<!DOCTYPE svg PUBLIC "-//W3C//DTD SVG 1.1//EN" "http://www.w3.org/Graphics/SVG/1.1/DTD/svg11.dtd"><!-- 由 Microsoft Visio, SVG Export 生成 flowdiagram.svg 页-1 --><svg xmlns="http://www.w3.org/2000/svg" xmlns:xlink="http://www.w3.org/1999/xlink" xmlns:ev="http://www.w3.org/2001/xml-events" xmlns:v="http://schemas.microsoft.com/visio/2003/SVGExtensions/" width="8.26772in" height="11.6929in" xml:space="preserve" color-interpolation-filters="sRGB" class="st20" preserveAspectRatio="xMidYMid meet" zoomAndPan="magnify" version="1.1" contentScriptType="application/ecmascript" contentStyleType="text/css"><v:documentProperties v:langID="2052">
		<v:userDefs>
			<v:ud v:nameU="msvSubprocessMaster" v:prompt="" v:val="VT4(Main process)"/>
			<v:ud v:nameU="msvNoAutoConnect" v:val="VT0(0):26"/>
		</v:userDefs>
	</v:documentProperties><style type="text/css" xml:space="preserve">
	<![CDATA[
		.st1 {fill:#f7931e;stroke:#d8d8d8;stroke-linecap:butt;stroke-width:0.749999}
		.st2 {fill:#843f07;stroke:#d8d8d8;stroke-linecap:butt;stroke-width:0.749999}
		.st3 {fill:#a55b11;stroke:#d8d8d8;stroke-linecap:butt;stroke-width:0.749999}
		.st4 {fill:url(#grad3-12);stroke:#c1272d;stroke-linecap:butt;stroke-width:1.78222}
		.st5 {fill:#000000;fill-opacity:0.58;stroke:none;stroke-linecap:butt;stroke-width:0.749999}
		.st6 {fill:url(#grad3-19);stroke:#2784f4;stroke-linecap:butt;stroke-width:1.78222}
		.st7 {fill:none;stroke:none;stroke-linecap:round;stroke-linejoin:round;stroke-width:0.749999}
		.st8 {fill:#000000;font-family:宋体;font-size:0.666664em}
		.st9 {fill:none;stroke:#d8d8d8;stroke-linecap:round;stroke-linejoin:round;stroke-width:0.749999}
		.st10 {marker-end:url(#mrkr4-72);stroke:#d8d8d8;stroke-linecap:round;stroke-linejoin:round;stroke-width:1.25}
		.st11 {fill:#d8d8d8;fill-opacity:1;stroke:#d8d8d8;stroke-opacity:1;stroke-width:0.33156467083425}
		.st12 {fill:#ffffff;stroke:none;stroke-linecap:butt;stroke-width:7.2}
		.st13 {marker-end:url(#mrkr4-209);stroke:#92d050;stroke-linecap:round;stroke-linejoin:round;stroke-width:1.25}
		.st14 {fill:#92d050;fill-opacity:1;stroke:#92d050;stroke-opacity:1;stroke-width:0.33156467083425}
		.st15 {fill:#4f9d9d;stroke:none;stroke-linecap:butt;stroke-width:0.749999}
		.st16 {fill:#5a5aad;stroke:none;stroke-linecap:butt;stroke-width:0.749999}
		.st17 {fill:#969696;stroke:none;stroke-linecap:butt;stroke-width:0.749999}
		.st18 {fill:url(#grad3-250);stroke:#666665;stroke-linecap:butt;stroke-width:1.46835}
		.st19 {stroke:#000000;stroke-linecap:round;stroke-linejoin:round;stroke-width:0.75}
		.st20 {fill:none;fill-rule:evenodd;font-size:12px;overflow:visible;stroke-linecap:square;stroke-miterlimit:3}
	]]>
	</style><defs id="Patterns_And_Gradients"><radialGradient id="grad3-12" cx="0.5" cy="0.5" r="0.73" xlink:type="simple" xlink:show="other" xlink:actuate="onLoad"><stop offset="0" stop-color="#ff4556" stop-opacity="1"/><stop offset="0.235" stop-color="#fe4254" stop-opacity="1"/><stop offset="0.43" stop-color="#fa384c" stop-opacity="1"/><stop offset="0.605" stop-color="#f4263f" stop-opacity="1"/><stop offset="0.775" stop-color="#ec0e2e" stop-opacity="1"/><stop offset="0.855" stop-color="#e70023" stop-opacity="1"/><stop offset="1" stop-color="#b9001c" stop-opacity="1"/></radialGradient><radialGradient id="grad3-19" cx="0.5" cy="0.5" r="0.73" xlink:type="simple" xlink:show="other" xlink:actuate="onLoad"><stop offset="0" stop-color="#b9fcff" stop-opacity="1"/><stop offset="0.205" stop-color="#b6faff" stop-opacity="1"/><stop offset="0.375" stop-color="#acf4ff" stop-opacity="1"/><stop offset="0.535" stop-color="#9ae9ff" stop-opacity="1"/><stop offset="0.685" stop-color="#82daff" stop-opacity="1"/><stop offset="0.825" stop-color="#63c7ff" stop-opacity="1"/><stop offset="0.855" stop-color="#5cc3ff" stop-opacity="1"/><stop offset="1" stop-color="#2e93ff" stop-opacity="1"/></radialGradient><radialGradient id="grad3-250" cx="0.5" cy="0.5" r="0.73" xlink:type="simple" xlink:show="other" xlink:actuate="onLoad"><stop offset="0" stop-color="#7f7f7f" stop-opacity="1"/><stop offset="0.26" stop-color="#7b7b7b" stop-opacity="1"/><stop offset="0.475" stop-color="#717171" stop-opacity="1"/><stop offset="0.675" stop-color="#606060" stop-opacity="1"/><stop offset="0.855" stop-color="#494949" stop-opacity="1"/><stop offset="1" stop-color="#3b3b3b" stop-opacity="1"/></radialGradient><filter id="svgerror"><feFlood flood-color="red" result="base"/><feMorphology result="bigger" in="SourceGraphic" operator="dilate" radius="2"/><feColorMatrix result="mask" in="bigger" type="matrix" values="0 0 0 0 0  0 0 0 0 0  0 0 0 0 0  0 0 0 1 0"/><feComposite result="drop" in="base" in2="mask" operator="in"/><feGaussianBlur result="blur" in="drop" stdDeviation="1"/><feBlend in="SourceGraphic" in2="blur" mode="normal"/></filter><filter id="svgwarn"><feFlood flood-color="#ffc20e" result="base"/><feMorphology result="bigger" in="SourceGraphic" operator="dilate" radius="2"/><feColorMatrix result="mask" in="bigger" type="matrix" values="0 0 0 0 0  0 0 0 0 0  0 0 0 0 0  0 0 0 1 0"/><feComposite result="drop" in="base" in2="mask" operator="in"/><feGaussianBlur result="blur" in="drop" stdDeviation="1"/><feBlend in="SourceGraphic" in2="blur" mode="normal"/></filter><filter id="svgok"><feFlood flood-color="green" result="base"/><feMorphology result="bigger" in="SourceGraphic" operator="dilate" radius="2"/><feColorMatrix result="mask" in="bigger" type="matrix" values="0 0 0 0 0  0 0 0 0 0  0 0 0 0 0  0 0 0 1 0"/><feComposite result="drop" in="base" in2="mask" operator="in"/><feGaussianBlur result="blur" in="drop" stdDeviation="1"/><feBlend in="SourceGraphic" in2="blur" mode="normal"/></filter></defs><defs id="Markers"><g id="lend4"><path d="M 2 1 L 0 0 L 2 -1 L 2 1 " style="stroke:none"/></g><marker id="mrkr4-72" class="st11" v:arrowType="4" v:arrowSize="2" v:setback="0" refX="-0" orient="auto" markerUnits="strokeWidth" overflow="visible" preserveAspectRatio="xMidYMid meet"><use xlink:href="#lend4" transform="scale(-3.0160028735386,-3.0160028735386) " xlink:type="simple" xlink:show="embed" xlink:actuate="onLoad"></use></marker><marker id="mrkr4-209" class="st14" v:arrowType="4" v:arrowSize="2" v:setback="0" refX="-0" orient="auto" markerUnits="strokeWidth" overflow="visible" preserveAspectRatio="xMidYMid meet"><use xlink:href="#lend4" transform="scale(-3.0160028735386,-3.0160028735386) " xlink:type="simple" xlink:show="embed" xlink:actuate="onLoad"></use></marker></defs><g v:mID="0" v:index="1" v:groupContext="foregroundPage"><title>页-1</title><v:pageProperties v:drawingScale="0.0393701" v:pageScale="0.0393701" v:drawingUnits="24" v:shadowOffsetX="8.99999" v:shadowOffsetY="-8.99999"/><v:layer v:name="连接线" v:index="0"/><v:layer v:name="流程图" v:index="1"/><g id="group1-1" transform="translate(60.9452,-609.449)" v:mID="1" v:groupContext="group" sv_v="fwtfp" sv_l="sv_o2" class="sv_o"><title>fwtfp</title><g id="shape2-2" v:mID="2" v:groupContext="shape" transform="translate(7.99361E-015,-14.0618)"><path d="M28.88 836.19 C28.88 836.19 28.88 836.19 28.88 836.19 L28.87 836.19 C28.86 835.89 28.78 835.59 28.62 835.32         L25.08 829.41 C24.87 829.05 24.55 828.8 24.19 828.65 L21.77 827.53 L20.6 826.55 L18.6 828.54 L16.6 826.55         L15.43 827.53 L13.01 828.65 C12.65 828.8 12.33 829.05 12.12 829.41 L8.58 835.32 C8.42 835.59 8.34 835.89         8.33 836.19 L8.32 836.19 C8.32 836.19 8.32 836.19 8.32 836.19 L0 836.19 L0 841.89 L37.28 841.89 L37.28         836.19 L28.88 836.19 ZM17.56 836.19 L18.6 829.67 L19.64 836.19 L17.56 836.19 Z" class="st1"/></g><g id="shape3-4" v:mID="3" v:groupContext="shape" transform="translate(11.1482,-27.8033)"><path d="M5.39 839.76 C5.99 840.21 6.69 840.43 7.48 840.45 C7.48 840.45 7.48 840.45 7.48 840.45 C7.48 840.45 7.48         840.45 7.49 840.45 C7.49 840.45 7.49 840.45 7.49 840.45 C7.49 840.45 7.49 840.45 7.49 840.45 C7.49 840.45         7.49 840.45 7.49 840.45 C7.49 840.45 7.5 840.45 7.5 840.45 C8.28 840.43 8.99 840.21 9.59 839.76 C10.97         841.04 14.98 841.89 13.39 840.76 C11.51 839.43 11.74 835.02 11.74 835.02 C11.77 834.67 11.78 834.32         11.78 833.95 C11.78 833.81 11.77 833.68 11.76 833.55 C11.73 832.88 11.57 832.4 11.57 832.4 C11.05 830.65         9.61 829.64 7.5 829.62 C7.49 829.62 7.49 829.62 7.49 829.62 C7.49 829.62 7.48 829.62 7.48 829.62 C5.36         829.64 3.92 830.65 3.41 832.4 C3.41 832.4 3.25 832.88 3.21 833.55 C3.2 833.68 3.2 833.81 3.19 833.95         C3.19 834.27 3.21 834.57 3.23 834.87 C3.74 835.51 4.63 836.26 6.12 836.48 C6.28 836.32 6.49 836.23 6.72         836.23 L7.59 836.23 C8.07 836.23 8.46 836.62 8.46 837.1 C8.46 837.57 8.07 837.96 7.59 837.96 L6.72 837.96         C6.52 837.96 6.32 837.89 6.17 837.76 C4.88 837.61 3.91 837.13 3.21 836.57 C3.1 837.98 2.74 839.94 1.59         840.76 C0 841.89 4.01 841.04 5.39 839.76 Z" class="st2"/></g><g id="shape4-6" v:mID="4" v:groupContext="shape" transform="translate(2.3701,2.27374E-013)"><rect x="0" y="828.898" width="32.5361" height="12.9906" class="st3"/></g></g><g id="group5-8" transform="translate(486.142,-718.369)" v:mID="5" v:groupContext="group" sv_v="close" sv_l="sv_o5" class="sv_o"><title>close</title><g id="shape6-9" v:mID="6" v:groupContext="shape"><ellipse cx="18.6378" cy="823.251" rx="18.6378" ry="18.6378" class="st4"/></g><g id="shape7-13" v:mID="7" v:groupContext="shape" transform="translate(11.7345,-9.62337)"><path d="M14.78 840.18 C14.78 841.13 14.01 841.89 13.07 841.89 L1.71 841.89 C0.76 841.89 0 841.13 0 840.18 L0 828.82         C0 827.88 0.76 827.11 1.71 827.11 L13.07 827.11 C14.01 827.11 14.78 827.88 14.78 828.82 L14.78 840.18         Z" class="st5"/></g></g><g id="group8-15" transform="translate(60.9452,-718.369)" v:mID="8" v:groupContext="group" sv_v="start" sv_l="sv_o1" class="sv_o"><title>start</title><g id="shape9-16" v:mID="9" v:groupContext="shape"><ellipse cx="18.6378" cy="823.251" rx="18.6378" ry="18.6378" class="st6"/></g><g id="shape10-20" v:mID="10" v:groupContext="shape" transform="translate(11.2978,-7.86162)"><path d="M2.72 821.95 C1.29 821.11 0.11 821.78 0.1 823.44 L0.01 839.55 C0 841.21 1.17 841.89 2.61 841.07 L16.6 833.1         C18.04 832.28 18.05 830.92 16.62 830.08 L2.72 821.95 Z" class="st5"/></g></g><g id="shape11-22" v:mID="11" v:groupContext="shape" transform="translate(46.772,-597.448)"><title>工作表.62</title><desc>服务台分配</desc><v:userDefs/><v:textBlock v:margins="rect(2,2,2,2)" v:tabSpace="42.5196"/><v:textRect cx="29.2063" cy="835.889" width="58.42" height="12"/><rect x="0" y="829.889" width="58.4133" height="12" class="st7"/><text x="9.21" y="838.29" class="st8" v:langID="2052"><v:paragraph v:horizAlign="1"/><v:tabList/>服务台分配</text></g><g id="group12-25" transform="translate(60.9452,-305.949)" v:mID="12" v:groupContext="group" sv_v="fwtcl" sv_l="sv_o2" class="sv_o"><title>fwtcl</title><g id="shape13-26" v:mID="13" v:groupContext="shape" transform="translate(7.99361E-015,-14.0618)"><path d="M28.88 836.19 C28.88 836.19 28.88 836.19 28.88 836.19 L28.87 836.19 C28.86 835.89 28.78 835.59 28.62 835.32         L25.08 829.41 C24.87 829.05 24.55 828.8 24.19 828.65 L21.77 827.53 L20.6 826.55 L18.6 828.54 L16.6 826.55         L15.43 827.53 L13.01 828.65 C12.65 828.8 12.33 829.05 12.12 829.41 L8.58 835.32 C8.42 835.59 8.34 835.89         8.33 836.19 L8.32 836.19 C8.32 836.19 8.32 836.19 8.32 836.19 L0 836.19 L0 841.89 L37.28 841.89 L37.28         836.19 L28.88 836.19 ZM17.56 836.19 L18.6 829.67 L19.64 836.19 L17.56 836.19 Z" class="st1"/></g><g id="shape14-28" v:mID="14" v:groupContext="shape" transform="translate(11.1482,-27.8033)"><path d="M5.39 839.76 C5.99 840.21 6.69 840.43 7.48 840.45 C7.48 840.45 7.48 840.45 7.48 840.45 C7.48 840.45 7.48         840.45 7.49 840.45 C7.49 840.45 7.49 840.45 7.49 840.45 C7.49 840.45 7.49 840.45 7.49 840.45 C7.49 840.45         7.49 840.45 7.49 840.45 C7.49 840.45 7.5 840.45 7.5 840.45 C8.28 840.43 8.99 840.21 9.59 839.76 C10.97         841.04 14.98 841.89 13.39 840.76 C11.51 839.43 11.74 835.02 11.74 835.02 C11.77 834.67 11.78 834.32         11.78 833.95 C11.78 833.81 11.77 833.68 11.76 833.55 C11.73 832.88 11.57 832.4 11.57 832.4 C11.05 830.65         9.61 829.64 7.5 829.62 C7.49 829.62 7.49 829.62 7.49 829.62 C7.49 829.62 7.48 829.62 7.48 829.62 C5.36         829.64 3.92 830.65 3.41 832.4 C3.41 832.4 3.25 832.88 3.21 833.55 C3.2 833.68 3.2 833.81 3.19 833.95         C3.19 834.27 3.21 834.57 3.23 834.87 C3.74 835.51 4.63 836.26 6.12 836.48 C6.28 836.32 6.49 836.23 6.72         836.23 L7.59 836.23 C8.07 836.23 8.46 836.62 8.46 837.1 C8.46 837.57 8.07 837.96 7.59 837.96 L6.72 837.96         C6.52 837.96 6.32 837.89 6.17 837.76 C4.88 837.61 3.91 837.13 3.21 836.57 C3.1 837.98 2.74 839.94 1.59         840.76 C0 841.89 4.01 841.04 5.39 839.76 Z" class="st2"/></g><g id="shape15-30" v:mID="15" v:groupContext="shape" transform="translate(2.3701,2.27374E-013)"><rect x="0" y="828.898" width="32.5361" height="12.9906" class="st3"/></g></g><g id="shape16-32" v:mID="16" v:groupContext="shape" transform="translate(58.1105,-289.134)"><title>工作表.67</title><desc>服务台处理</desc><v:userDefs/><v:textBlock v:margins="rect(2,2,2,2)" v:tabSpace="42.5196"/><v:textRect cx="22.5094" cy="835.889" width="45.02" height="12"/><rect x="0" y="829.889" width="45.0196" height="12" class="st9"/><text x="2.51" y="838.29" class="st8" v:langID="2052"><v:paragraph v:horizAlign="1"/><v:tabList/>服务台处理</text></g><g id="shape17-35" v:mID="17" v:groupContext="shape" transform="translate(186.004,-444.708)"><title>工作表.72</title><desc>二线处理</desc><v:userDefs/><v:textBlock v:margins="rect(2,2,2,2)" v:tabSpace="42.5196"/><v:textRect cx="19.8874" cy="835.889" width="39.78" height="12"/><rect x="0" y="829.889" width="39.7755" height="12" class="st9"/><text x="3.89" y="838.29" class="st8" v:langID="2052"><v:paragraph v:horizAlign="1"/><v:tabList/>二线处理</text></g><g id="group18-38" transform="translate(189.754,-672.141)" v:mID="18" v:groupContext="group" sv_v="nbjk" sv_l="sv_o2" class="sv_o"><title>nbjk</title><g id="shape19-39" v:mID="19" v:groupContext="shape" transform="translate(7.99361E-015,-14.0618)"><path d="M28.88 836.19 C28.88 836.19 28.88 836.19 28.88 836.19 L28.87 836.19 C28.86 835.89 28.78 835.59 28.62 835.32         L25.08 829.41 C24.87 829.05 24.55 828.8 24.19 828.65 L21.77 827.53 L20.6 826.55 L18.6 828.54 L16.6 826.55         L15.43 827.53 L13.01 828.65 C12.65 828.8 12.33 829.05 12.12 829.41 L8.58 835.32 C8.42 835.59 8.34 835.89         8.33 836.19 L8.32 836.19 C8.32 836.19 8.32 836.19 8.32 836.19 L0 836.19 L0 841.89 L37.28 841.89 L37.28         836.19 L28.88 836.19 ZM17.56 836.19 L18.6 829.67 L19.64 836.19 L17.56 836.19 Z" class="st1"/></g><g id="shape20-41" v:mID="20" v:groupContext="shape" transform="translate(11.1482,-27.8033)"><path d="M5.39 839.76 C5.99 840.21 6.69 840.43 7.48 840.45 C7.48 840.45 7.48 840.45 7.48 840.45 C7.48 840.45 7.48         840.45 7.49 840.45 C7.49 840.45 7.49 840.45 7.49 840.45 C7.49 840.45 7.49 840.45 7.49 840.45 C7.49 840.45         7.49 840.45 7.49 840.45 C7.49 840.45 7.5 840.45 7.5 840.45 C8.28 840.43 8.99 840.21 9.59 839.76 C10.97         841.04 14.98 841.89 13.39 840.76 C11.51 839.43 11.74 835.02 11.74 835.02 C11.77 834.67 11.78 834.32         11.78 833.95 C11.78 833.81 11.77 833.68 11.76 833.55 C11.73 832.88 11.57 832.4 11.57 832.4 C11.05 830.65         9.61 829.64 7.5 829.62 C7.49 829.62 7.49 829.62 7.49 829.62 C7.49 829.62 7.48 829.62 7.48 829.62 C5.36         829.64 3.92 830.65 3.41 832.4 C3.41 832.4 3.25 832.88 3.21 833.55 C3.2 833.68 3.2 833.81 3.19 833.95         C3.19 834.27 3.21 834.57 3.23 834.87 C3.74 835.51 4.63 836.26 6.12 836.48 C6.28 836.32 6.49 836.23 6.72         836.23 L7.59 836.23 C8.07 836.23 8.46 836.62 8.46 837.1 C8.46 837.57 8.07 837.96 7.59 837.96 L6.72 837.96         C6.52 837.96 6.32 837.89 6.17 837.76 C4.88 837.61 3.91 837.13 3.21 836.57 C3.1 837.98 2.74 839.94 1.59         840.76 C0 841.89 4.01 841.04 5.39 839.76 Z" class="st2"/></g><g id="shape21-43" v:mID="21" v:groupContext="shape" transform="translate(2.3701,2.27374E-013)"><rect x="0" y="828.898" width="32.5361" height="12.9906" class="st3"/></g></g><g id="shape22-45" v:mID="22" v:groupContext="shape" transform="translate(188.504,-654.141)"><title>工作表.80</title><desc>内部接口</desc><v:userDefs/><v:textBlock v:margins="rect(2,2,2,2)" v:tabSpace="42.5196"/><v:textRect cx="19.8874" cy="835.889" width="39.78" height="12"/><rect x="0" y="829.889" width="39.7755" height="12" class="st9"/><text x="3.89" y="838.29" class="st8" v:langID="2052"><v:paragraph v:horizAlign="1"/><v:tabList/>内部接口</text></g><g id="shape23-48" v:mID="23" v:groupContext="shape" transform="translate(337.323,-654.141)"><title>工作表.86</title><desc>其他部门</desc><v:userDefs/><v:textBlock v:margins="rect(2,2,2,2)" v:tabSpace="42.5196"/><v:textRect cx="19.8874" cy="835.889" width="39.78" height="12"/><rect x="0" y="829.889" width="39.7755" height="12" class="st9"/><text x="3.89" y="838.29" class="st8" v:langID="2052"><v:paragraph v:horizAlign="1"/><v:tabList/>其他部门</text></g><g id="shape24-51" v:mID="24" v:groupContext="shape" transform="translate(338.573,-492.235)"><title>工作表.92</title><desc>厂商</desc><v:userDefs/><v:textBlock v:margins="rect(2,2,2,2)" v:tabSpace="42.5196"/><v:textRect cx="18.6374" cy="835.889" width="37.28" height="12"/><rect x="0" y="829.889" width="37.2755" height="12" class="st9"/><text x="10.64" y="838.29" class="st8" v:langID="2052"><v:paragraph v:horizAlign="1"/><v:tabList/>厂商</text></g><g id="shape25-54" v:mID="25" v:groupContext="shape" transform="translate(337.323,-405.023)"><title>工作表.98</title><desc>三线处理</desc><v:userDefs/><v:textBlock v:margins="rect(2,2,2,2)" v:tabSpace="42.5196"/><v:textRect cx="19.8874" cy="835.889" width="39.78" height="12"/><rect x="0" y="829.889" width="39.7755" height="12" class="st9"/><text x="3.89" y="838.29" class="st8" v:langID="2052"><v:paragraph v:horizAlign="1"/><v:tabList/>三线处理</text></g><g id="group26-57" transform="translate(491.386,-453.543)" v:mID="26" v:groupContext="group" sv_v="hf" sv_l="sv_o2" class="sv_o"><title>hf</title><g id="shape27-58" v:mID="27" v:groupContext="shape" transform="translate(7.99361E-015,-14.0618)"><path d="M28.88 836.19 C28.88 836.19 28.88 836.19 28.88 836.19 L28.87 836.19 C28.86 835.89 28.78 835.59 28.62 835.32         L25.08 829.41 C24.87 829.05 24.55 828.8 24.19 828.65 L21.77 827.53 L20.6 826.55 L18.6 828.54 L16.6 826.55         L15.43 827.53 L13.01 828.65 C12.65 828.8 12.33 829.05 12.12 829.41 L8.58 835.32 C8.42 835.59 8.34 835.89         8.33 836.19 L8.32 836.19 C8.32 836.19 8.32 836.19 8.32 836.19 L0 836.19 L0 841.89 L37.28 841.89 L37.28         836.19 L28.88 836.19 ZM17.56 836.19 L18.6 829.67 L19.64 836.19 L17.56 836.19 Z" class="st1"/></g><g id="shape28-60" v:mID="28" v:groupContext="shape" transform="translate(11.1482,-27.8033)"><path d="M5.39 839.76 C5.99 840.21 6.69 840.43 7.48 840.45 C7.48 840.45 7.48 840.45 7.48 840.45 C7.48 840.45 7.48         840.45 7.49 840.45 C7.49 840.45 7.49 840.45 7.49 840.45 C7.49 840.45 7.49 840.45 7.49 840.45 C7.49 840.45         7.49 840.45 7.49 840.45 C7.49 840.45 7.5 840.45 7.5 840.45 C8.28 840.43 8.99 840.21 9.59 839.76 C10.97         841.04 14.98 841.89 13.39 840.76 C11.51 839.43 11.74 835.02 11.74 835.02 C11.77 834.67 11.78 834.32         11.78 833.95 C11.78 833.81 11.77 833.68 11.76 833.55 C11.73 832.88 11.57 832.4 11.57 832.4 C11.05 830.65         9.61 829.64 7.5 829.62 C7.49 829.62 7.49 829.62 7.49 829.62 C7.49 829.62 7.48 829.62 7.48 829.62 C5.36         829.64 3.92 830.65 3.41 832.4 C3.41 832.4 3.25 832.88 3.21 833.55 C3.2 833.68 3.2 833.81 3.19 833.95         C3.19 834.27 3.21 834.57 3.23 834.87 C3.74 835.51 4.63 836.26 6.12 836.48 C6.28 836.32 6.49 836.23 6.72         836.23 L7.59 836.23 C8.07 836.23 8.46 836.62 8.46 837.1 C8.46 837.57 8.07 837.96 7.59 837.96 L6.72 837.96         C6.52 837.96 6.32 837.89 6.17 837.76 C4.88 837.61 3.91 837.13 3.21 836.57 C3.1 837.98 2.74 839.94 1.59         840.76 C0 841.89 4.01 841.04 5.39 839.76 Z" class="st2"/></g><g id="shape29-62" v:mID="29" v:groupContext="shape" transform="translate(2.3701,2.27374E-013)"><rect x="0" y="828.898" width="32.5361" height="12.9906" class="st3"/></g></g><g id="shape30-64" v:mID="30" v:groupContext="shape" transform="translate(500.315,-441.68)"><title>工作表.104</title><desc>回访</desc><v:userDefs/><v:textBlock v:margins="rect(2,2,2,2)" v:tabSpace="42.5196"/><v:textRect cx="10.5685" cy="835.889" width="21.14" height="12"/><rect x="0" y="829.889" width="21.1378" height="12" class="st9"/><text x="2.57" y="838.29" class="st8" v:langID="2052"><v:paragraph v:horizAlign="1"/><v:tabList/>回访</text></g><g id="shape31-67" v:mID="31" v:groupContext="shape" v:layerMember="0" transform="translate(79.5785,-649.519)" sv_v="action1_start_fwtfp" sv_l="sv_t1" class="sv_t"><title>action1_start_fwtfp</title><desc>提交事件</desc><v:textBlock v:margins="rect(3.99999,3.99999,3.99999,3.99999)" v:tabSpace="42.5196"/><v:textRect cx="0.00304575" cy="807.464" width="44.06" height="17.6036"/><path d="M0 773.04 L0 834.35 L0 841.89" class="st10"/><rect v:rectContext="textBkgnd" x="-15.9968" y="802.664" width="31.9999" height="9.59985" class="st12"/><text x="-16" y="809.86" class="st8" v:langID="2052"><v:paragraph v:horizAlign="1"/><v:tabList/>提交事件</text></g><g id="shape32-75" v:mID="32" v:groupContext="shape" v:layerMember="0" transform="translate(79.5787,-346.024)"><title>动态连接线.113</title><desc>分配服务台</desc><v:userDefs/><v:textBlock v:margins="rect(3.99999,3.99999,3.99999,3.99999)" v:tabSpace="42.5196"/><v:textRect cx="0.00304575" cy="717.856" width="52.06" height="17.6036"/><path d="M0 593.82 L0 834.35 L0 841.89" class="st10"/><rect v:rectContext="textBkgnd" x="-19.9968" y="713.056" width="39.9998" height="9.59985" class="st12"/><text x="-20" y="720.26" class="st8" v:langID="2052"><v:paragraph v:horizAlign="1"/><v:tabList/>分配服务台</text></g><g id="shape33-82" v:mID="33" v:groupContext="shape" v:layerMember="0" transform="translate(109.134,-496.066)"><title>动态连接线.114</title><desc>分配二线</desc><v:userDefs/><v:textBlock v:margins="rect(3.99999,3.99999,3.99999,3.99999)" v:tabSpace="42.5196"/><v:textRect cx="42.5193" cy="794.412" width="44.01" height="17.6036"/><path d="M0 746.93 L80.01 836.27 L85.04 841.89" class="st10"/><rect v:rectContext="textBkgnd" x="26.5195" y="789.612" width="31.9999" height="9.59985" class="st12"/><text x="26.52" y="796.81" class="st8" v:langID="2052"><v:paragraph v:horizAlign="1"/><v:tabList/>分配二线</text></g><g id="shape34-89" v:mID="34" v:groupContext="shape" v:layerMember="0" transform="translate(103.465,-348.661)"><title>动态连接线.115</title><desc>转交二线</desc><v:userDefs/><v:textBlock v:margins="rect(3.99999,3.99999,3.99999,3.99999)" v:tabSpace="42.5196"/><v:textRect cx="40.9858" cy="792.282" width="44.01" height="17.6036"/><path d="M0 841.89 L77.17 748.49 L81.97 742.68" class="st10"/><rect v:rectContext="textBkgnd" x="24.986" y="787.482" width="31.9999" height="9.59985" class="st12"/><text x="24.99" y="794.68" class="st8" v:langID="2052"><v:paragraph v:horizAlign="1"/><v:tabList/>转交二线</text></g><g id="shape35-96" v:mID="35" v:groupContext="shape" v:layerMember="0" transform="translate(103.465,-615.117)"><title>动态连接线.116</title><desc>分配内部接口</desc><v:userDefs/><v:textBlock v:margins="rect(3.99999,3.99999,3.99999,3.99999)" v:tabSpace="42.5196"/><v:textRect cx="39.9681" cy="812.834" width="60.01" height="17.6036"/><path d="M0 841.89 L73.84 788.21 L79.94 783.78" class="st10"/><rect v:rectContext="textBkgnd" x="15.9683" y="808.034" width="47.9998" height="9.59985" class="st12"/><text x="15.97" y="815.23" class="st8" v:langID="2052"><v:paragraph v:horizAlign="1"/><v:tabList/>分配内部接口</text></g><g id="shape36-103" v:mID="36" v:groupContext="shape" v:layerMember="0" transform="translate(207.212,-503.149)"><title>动态连接线.117</title><desc>退回</desc><v:userDefs/><v:textBlock v:margins="rect(3.99999,3.99999,3.99999,3.99999)" v:tabSpace="42.5196"/><v:textRect cx="0.848963" cy="767.479" width="40" height="17.6036"/><path d="M1.7 693.07 L0.09 834.35 L0 841.89" class="st10"/><rect v:rectContext="textBkgnd" x="-7.15092" y="762.68" width="15.9999" height="9.59985" class="st12"/><text x="-7.15" y="769.88" class="st8" v:langID="2052"><v:paragraph v:horizAlign="1"/><v:tabList/>退回</text></g><g id="shape37-110" v:mID="37" v:groupContext="shape" v:layerMember="0" transform="translate(224.66,-678.639)"><title>动态连接线.118</title><desc>分配其他部门</desc><v:userDefs/><v:textBlock v:margins="rect(3.99999,3.99999,3.99999,3.99999)" v:tabSpace="42.5196"/><v:textRect cx="56.144" cy="841.892" width="60.01" height="17.6036"/><path d="M0 841.89 L104.75 841.89 L112.29 841.89" class="st10"/><rect v:rectContext="textBkgnd" x="32.1441" y="837.092" width="47.9998" height="9.59985" class="st12"/><text x="32.14" y="844.29" class="st8" v:langID="2052"><v:paragraph v:horizAlign="1"/><v:tabList/>分配其他部门</text></g><g id="shape38-117" v:mID="38" v:groupContext="shape" v:layerMember="0" transform="translate(362.555,-504.571)"><title>动态连接线.119</title><desc>其他部门解决</desc><v:userDefs/><v:textBlock v:margins="rect(3.99999,3.99999,3.99999,3.99999)" v:tabSpace="42.5196"/><v:textRect cx="66.612" cy="767.106" width="60.01" height="17.6036"/><path d="M0 692.32 L128.21 836.26 L133.22 841.89" class="st10"/><rect v:rectContext="textBkgnd" x="42.6121" y="762.306" width="47.9998" height="9.59985" class="st12"/><text x="42.61" y="769.51" class="st8" v:langID="2052"><v:paragraph v:horizAlign="1"/><v:tabList/>其他部门解决</text></g><g id="shape39-124" v:mID="39" v:groupContext="shape" v:layerMember="0" transform="translate(238.11,-493.23)"><title>动态连接线.120</title><desc>内部解决</desc><v:userDefs/><v:textBlock v:margins="rect(3.99999,3.99999,3.99999,3.99999)" v:tabSpace="42.5196"/><v:textRect cx="122.597" cy="758.978" width="44.01" height="17.6036"/><path d="M0 676.07 L238.95 837.66 L245.2 841.89" class="st10"/><rect v:rectContext="textBkgnd" x="106.598" y="754.178" width="31.9999" height="9.59985" class="st12"/><text x="106.6" y="761.38" class="st8" v:langID="2052"><v:paragraph v:horizAlign="1"/><v:tabList/>内部解决</text></g><g id="shape40-131" v:mID="40" v:groupContext="shape" v:layerMember="0" transform="translate(235.276,-440.216)"><title>动态连接线.121</title><desc>分配三线</desc><v:userDefs/><v:textBlock v:margins="rect(3.99999,3.99999,3.99999,3.99999)" v:tabSpace="42.5196"/><v:textRect cx="45.1413" cy="823.886" width="44.01" height="17.6036"/><path d="M0 805.89 L83.28 839.1 L90.28 841.89" class="st10"/><rect v:rectContext="textBkgnd" x="29.1414" y="819.086" width="31.9999" height="9.59985" class="st12"/><text x="29.14" y="826.29" class="st8" v:langID="2052"><v:paragraph v:horizAlign="1"/><v:tabList/>分配三线</text></g><g id="shape41-138" v:mID="41" v:groupContext="shape" v:layerMember="0" transform="translate(231.024,-428.03)"><title>动态连接线.122</title><desc>三线退二线</desc><v:userDefs/><v:textBlock v:margins="rect(3.99999,3.99999,3.99999,3.99999)" v:tabSpace="42.5196"/><v:textRect cx="46.3461" cy="824.172" width="52.01" height="17.6036"/><path d="M92.69 841.89 L7.04 809.15 L0 806.46" class="st10"/><rect v:rectContext="textBkgnd" x="26.3462" y="819.372" width="39.9998" height="9.59985" class="st12"/><text x="26.35" y="826.57" class="st8" v:langID="2052"><v:paragraph v:horizAlign="1"/><v:tabList/>三线退二线</text></g><g id="shape42-145" v:mID="42" v:groupContext="shape" v:layerMember="0" transform="translate(219.685,-508.818)"><title>动态连接线.123</title><desc>厂商解决</desc><v:userDefs/><v:textBlock v:margins="rect(3.99999,3.99999,3.99999,3.99999)" v:tabSpace="42.5196"/><v:textRect cx="48.1886" cy="827.007" width="44.01" height="17.6036"/><path d="M0 841.89 L89.17 814.35 L96.37 812.12" class="st10"/><rect v:rectContext="textBkgnd" x="32.1887" y="822.207" width="31.9999" height="9.59985" class="st12"/><text x="32.19" y="829.41" class="st8" v:langID="2052"><v:paragraph v:horizAlign="1"/><v:tabList/>厂商解决</text></g><g id="shape43-152" v:mID="43" v:groupContext="shape" v:layerMember="0" transform="translate(229.606,-496.063)"><title>动态连接线.124</title><desc>厂商退二线</desc><v:userDefs/><v:textBlock v:margins="rect(3.99999,3.99999,3.99999,3.99999)" v:tabSpace="42.5196"/><v:textRect cx="47.7643" cy="827.717" width="52.01" height="17.6036"/><path d="M95.53 813.54 L7.23 839.74 L0 841.89" class="st10"/><rect v:rectContext="textBkgnd" x="27.7645" y="822.917" width="39.9998" height="9.59985" class="st12"/><text x="27.76" y="830.12" class="st8" v:langID="2052"><v:paragraph v:horizAlign="1"/><v:tabList/>厂商退二线</text></g><g id="shape44-159" v:mID="44" v:groupContext="shape" v:layerMember="0" transform="translate(373.479,-481.89)"><title>动态连接线.125</title><desc>厂商解决</desc><v:userDefs/><v:textBlock v:margins="rect(3.99999,3.99999,3.99999,3.99999)" v:tabSpace="42.5196"/><v:textRect cx="52.3625" cy="823.548" width="44.01" height="17.6036"/><path d="M0 805.21 L97.61 839.4 L104.73 841.89" class="st10"/><rect v:rectContext="textBkgnd" x="36.3626" y="818.749" width="31.9999" height="9.59985" class="st12"/><text x="36.36" y="825.95" class="st8" v:langID="2052"><v:paragraph v:horizAlign="1"/><v:tabList/>厂商解决</text></g><g id="shape45-166" v:mID="45" v:groupContext="shape" v:layerMember="0" transform="translate(372.756,-439.369)"><title>动态连接线.127</title><desc>三线解决</desc><v:userDefs/><v:textBlock v:margins="rect(3.99999,3.99999,3.99999,3.99999)" v:tabSpace="42.5196"/><v:textRect cx="53.9996" cy="827.716" width="44.01" height="17.6036"/><path d="M0 841.89 L100.71 815.46 L108 813.54" class="st10"/><rect v:rectContext="textBkgnd" x="37.9997" y="822.916" width="31.9999" height="9.59985" class="st12"/><text x="38" y="830.12" class="st8" v:langID="2052"><v:paragraph v:horizAlign="1"/><v:tabList/>三线解决</text></g><g id="shape46-173" v:mID="46" v:groupContext="shape" v:layerMember="0" transform="translate(111.969,-325.984)"><title>动态连接线.129</title><desc>服务台解决</desc><v:userDefs/><v:textBlock v:margins="rect(3.99999,3.99999,3.99999,3.99999)" v:tabSpace="42.5196"/><v:textRect cx="186.538" cy="787.174" width="52.01" height="17.6036"/><path d="M0 841.89 L365.84 734.58 L373.07 732.46" class="st10"/><rect v:rectContext="textBkgnd" x="166.539" y="782.374" width="39.9998" height="9.59985" class="st12"/><text x="166.54" y="789.57" class="st8" v:langID="2052"><v:paragraph v:horizAlign="1"/><v:tabList/>服务台解决</text></g><g id="shape47-180" v:mID="47" v:groupContext="shape" v:layerMember="0" transform="translate(109.701,-310.276)"><title>动态连接线.130</title><desc>等待关闭</desc><v:userDefs/><v:textBlock v:margins="rect(3.99999,3.99999,3.99999,3.99999)" v:tabSpace="42.5196"/><v:textRect cx="188.221" cy="787.263" width="44.01" height="17.6036"/><path d="M376.44 732.64 L7.24 839.79 L0 841.89" class="st10"/><rect v:rectContext="textBkgnd" x="172.221" y="782.464" width="31.9999" height="9.59985" class="st12"/><text x="172.22" y="789.66" class="st8" v:langID="2052"><v:paragraph v:horizAlign="1"/><v:tabList/>等待关闭</text></g><g id="shape48-187" v:mID="48" v:groupContext="shape" v:layerMember="0" transform="translate(233.858,-474.805)"><title>动态连接线.147</title><desc>二线解决</desc><v:userDefs/><v:textBlock v:margins="rect(3.99999,3.99999,3.99999,3.99999)" v:tabSpace="42.5196"/><v:textRect cx="123.023" cy="838.348" width="44.01" height="17.6036"/><path d="M0 834.8 L238.51 841.67 L246.05 841.89" class="st10"/><rect v:rectContext="textBkgnd" x="107.024" y="833.548" width="31.9999" height="9.59985" class="st12"/><text x="107.02" y="840.75" class="st8" v:langID="2052"><v:paragraph v:horizAlign="1"/><v:tabList/>二线解决</text></g><g id="shape49-194" v:mID="49" v:groupContext="shape" v:layerMember="0" transform="translate(505.988,-504.566)"><title>动态连接线.155</title><desc>关闭事件</desc><v:userDefs/><v:textBlock v:margins="rect(3.99999,3.99999,3.99999,3.99999)" v:tabSpace="42.5196"/><v:textRect cx="-0.00373424" cy="739.842" width="44.06" height="17.6036"/><path d="M0 841.89 L0 645.34 L0 637.8" class="st10"/><rect v:rectContext="textBkgnd" x="-16.0036" y="735.042" width="31.9999" height="9.59985" class="st12"/><text x="-16" y="742.24" class="st8" v:langID="2052"><v:paragraph v:horizAlign="1"/><v:tabList/>关闭事件</text></g><g id="shape50-201" v:mID="50" v:groupContext="shape" transform="translate(486.142,-702.66)"><title>工作表.156</title><desc>已关闭</desc><v:userDefs/><v:textBlock v:margins="rect(2,2,2,2)" v:tabSpace="42.5196"/><v:textRect cx="18.6374" cy="835.889" width="37.28" height="12"/><rect x="0" y="829.889" width="37.2755" height="12" class="st9"/><text x="6.64" y="838.29" class="st8" v:langID="2052"><v:paragraph v:horizAlign="1"/><v:tabList/>已关闭</text></g><g id="shape51-204" v:mID="51" v:groupContext="shape" v:layerMember="0" transform="translate(32.6021,-637.794)" sv_t0="" style="visibility:hidden" class="sv_t0"><title>动态连接线</title><desc>a</desc><v:textBlock v:margins="rect(3.99999,3.99999,3.99999,3.99999)" v:tabSpace="42.5196"/><v:textRect cx="-0.00373424" cy="799.368" width="40.05" height="17.6036"/><path d="M0 756.85 L0 834.35 L0 841.89" class="st13"/><rect v:rectContext="textBkgnd" x="-2.00371" y="794.568" width="4.00012" height="9.59985" class="st12"/><text x="-2" y="801.77" class="st8" v:langID="2052"><v:paragraph v:horizAlign="1"/><v:tabList/>a</text></g><g id="group52-212" transform="translate(331.776,-510.235)" v:mID="52" v:groupContext="group" sv_v="cx" sv_l="sv_o4" class="sv_o"><title>cx</title><g id="shape53-213" v:mID="53" v:groupContext="shape"><path d="M36.27 822.98 C36.27 822.57 36.11 822.28 35.79 822.1 L30.98 819.81 C31.54 819.46 31.99 818.96 32.33 818.31         C32.67 817.66 32.83 816.93 32.83 816.11 C32.83 814.96 32.49 813.98 31.8 813.15 C31.11 812.33 30.26 811.92         29.26 811.92 C28.91 811.92 28.58 811.98 28.27 812.1 C27.96 812.21 27.68 812.36 27.41 812.54 C27.74 813.42         27.9 814.31 27.9 815.23 C27.9 816.67 27.52 817.97 26.75 819.15 C26.9 819.3 27.04 819.43 27.17 819.54         C27.3 819.66 27.44 819.77 27.59 819.85 L30.72 821.31 C31.16 821.54 31.51 821.87 31.78 822.3 C32.04 822.73         32.17 823.2 32.17 823.73 L32.17 827.79 L35.48 827.79 C35.71 827.79 35.9 827.69 36.05 827.5 C36.2 827.31         36.27 827.08 36.27 826.82 L36.27 822.98 ZM30.67 823.73 C30.67 823.2 30.47 822.85 30.06 822.67 L25.87         820.65 L24.11 819.81 C24.49 819.57 24.84 819.27 25.14 818.91 C25.45 818.54 25.71 818.12 25.92 817.65         C26.06 817.3 26.19 816.92 26.29 816.5 C26.39 816.09 26.44 815.67 26.44 815.23 C26.44 814.99 26.43 814.76         26.4 814.54 C26.37 814.32 26.33 814.09 26.27 813.86 C26 812.74 25.48 811.83 24.7 811.13 C23.92 810.42         23.02 810.07 21.99 810.07 C20.96 810.07 20.07 810.41 19.3 811.1 C18.54 811.8 18.03 812.67 17.76 813.73         C17.61 814.26 17.54 814.76 17.54 815.23 C17.54 816.11 17.73 816.96 18.11 817.78 C18.55 818.66 19.16         819.35 19.92 819.85 L18.25 820.65 L13.93 822.63 C13.49 822.84 13.27 823.2 13.27 823.73 L13.27 827.79         L13.27 828.49 C13.27 828.81 13.36 829.09 13.55 829.31 C13.74 829.53 13.99 829.64 14.28 829.64 L29.71         829.64 C29.97 829.64 30.2 829.53 30.39 829.31 C30.58 829.09 30.67 828.81 30.67 828.49 L30.67 827.79         L30.67 823.73 ZM11.81 823.73 C11.81 823.2 11.94 822.73 12.21 822.3 C12.47 821.87 12.83 821.54 13.27         821.31 L16.53 819.81 C16.82 819.63 17.06 819.43 17.23 819.19 C16.85 818.63 16.56 818.02 16.35 817.34         C16.15 816.67 16.04 815.96 16.04 815.23 C16.04 814.73 16.09 814.25 16.2 813.79 C16.3 813.34 16.42 812.9         16.57 812.49 C16.04 812.11 15.45 811.92 14.81 811.92 C13.81 811.92 12.96 812.33 12.27 813.15 C11.58         813.98 11.24 814.96 11.24 816.11 C11.24 816.93 11.41 817.67 11.77 818.33 C12.12 818.99 12.59 819.5 13.18         819.85 L8.29 822.1 C7.96 822.25 7.8 822.54 7.8 822.98 L7.8 826.82 C7.8 827.08 7.87 827.31 8.02 827.5         C8.17 827.69 8.36 827.79 8.59 827.79 L11.81 827.79 L11.81 823.73 ZM22.04 797.82 C25.06 797.82 27.92         798.4 30.61 799.56 C33.3 800.72 35.63 802.29 37.62 804.27 C39.6 806.26 41.17 808.59 42.33 811.28 C43.49         813.97 44.07 816.83 44.07 819.85 C44.07 821.88 43.81 823.83 43.28 825.72 C42.75 827.6 42.01 829.35 41.05         830.98 C40.1 832.61 38.95 834.1 37.62 835.43 C36.28 836.77 34.8 837.92 33.16 838.87 C31.53 839.83 29.78         840.57 27.9 841.1 C26.02 841.63 24.06 841.89 22.04 841.89 C20.01 841.89 18.06 841.63 16.17 841.1 C14.29         840.57 12.54 839.83 10.91 838.87 C9.28 837.92 7.79 836.77 6.46 835.43 C5.12 834.1 3.97 832.61 3.02 830.98         C2.06 829.35 1.32 827.6 0.79 825.72 C0.26 823.83 0 821.88 0 819.85 C0 817.83 0.26 815.87 0.79 813.99         C1.32 812.11 2.06 810.36 3.02 808.72 C3.97 807.09 5.12 805.61 6.46 804.27 C7.79 802.94 9.28 801.79 10.91         800.84 C12.54 799.88 14.29 799.14 16.17 798.61 C18.06 798.08 20.01 797.82 22.04 797.82 Z" class="st15"/></g></g><g id="group54-215" transform="translate(190.414,-448.613)" v:mID="54" v:groupContext="group" sv_v="excl" sv_l="sv_o3" class="sv_o"><title>excl</title><g id="group55-216" v:mID="55" v:groupContext="group"><g id="shape56-217" v:mID="56" v:groupContext="shape"><path d="M38.5 823.88 C38.42 823.41 38.09 823.04 37.65 822.9 C37.2 822.76 36.72 822.88 36.39 823.21 L34.94 824.65          L34.29 824.48 L34.11 823.83 L35.56 822.38 C35.89 822.05 36.01 821.56 35.87 821.12 C35.73 820.67          35.35 820.34 34.89 820.26 C33.47 820.01 32 820.48 30.98 821.5 C29.9 822.58 29.46 824.15 29.79 825.62          L28.97 826.44 L27.33 823.7 C26.96 823.08 26.4 822.65 25.78 822.4 L21.56 820.49 L19.83 818.93 L16.41          822.06 L13.06 818.9 L11.1 820.55 L7.03 822.42 C6.43 822.67 5.89 823.1 5.53 823.7 L0 832.95 L14.85          832.95 L16.38 822.71 L16.43 822.71 L17.96 832.95 L20.7 832.95 C19.75 833.08 18.86 833.61 18.18 834.3          C17.15 835.32 16.69 836.78 16.94 838.21 C17.02 838.67 17.35 839.05 17.8 839.19 C18.24 839.33 18.73          839.21 19.06 838.88 L20.51 837.43 L21.16 837.61 L21.33 838.26 L19.89 839.71 C19.56 840.04 19.44          840.52 19.58 840.97 C19.72 841.41 20.1 841.74 20.56 841.82 C20.81 841.87 21.07 841.89 21.32 841.89          C22.51 841.89 23.63 841.43 24.46 840.59 C25.55 839.5 25.98 837.93 25.65 836.47 L29.17 832.95 L32.86          832.95 L31.48 830.64 L33.15 828.97 C33.47 829.05 33.8 829.09 34.13 829.09 C35.32 829.09 36.43 828.62          37.27 827.78 C38.29 826.76 38.75 825.3 38.5 823.88 ZM36.25 826.98 C35.28 827.95 33.85 828.16 32.67          827.63 L24.09 836.2 C24.62 837.38 24.41 838.82 23.44 839.78 C22.68 840.55 21.62 840.84 20.63 840.67          L22.59 838.71 L22.04 836.67 L20 836.12 L18.04 838.07 C17.86 837.08 18.16 836.03 18.92 835.26 C19.89          834.3 21.33 834.08 22.5 834.62 L31.08 826.04 C30.55 824.86 30.76 823.43 31.73 822.46 C32.49 821.7          33.55 821.4 34.54 821.57 L32.58 823.53 L33.13 825.58 L35.18 826.13 L37.13 824.17 C37.31 825.16 37.01          826.21 36.25 826.98 Z" class="st16"/></g><g id="shape57-219" v:mID="57" v:groupContext="shape" transform="translate(8.98064,-22.5308)"><path d="M7.49 841.81 C11.9 841.72 14.82 837.58 14.8 831.4 C14.8 826.95 11.92 824.35 7.14 824.45 C2.54 824.56          0 827.11 0.05 831.57 C0.12 837.99 2.95 841.89 7.49 841.81 Z" class="st16"/></g></g></g><g id="group58-221" transform="translate(334.595,-425.643)" v:mID="58" v:groupContext="group" sv_v="sxcl" sv_l="sv_o3" class="sv_o"><title>sxcl</title><g id="group59-222" v:mID="59" v:groupContext="group"><g id="shape60-223" v:mID="60" v:groupContext="shape"><path d="M38.5 823.88 C38.42 823.41 38.09 823.04 37.65 822.9 C37.2 822.76 36.72 822.88 36.39 823.21 L34.94 824.65          L34.29 824.48 L34.11 823.83 L35.56 822.38 C35.89 822.05 36.01 821.56 35.87 821.12 C35.73 820.67          35.35 820.34 34.89 820.26 C33.47 820.01 32 820.48 30.98 821.5 C29.9 822.58 29.46 824.15 29.79 825.62          L28.97 826.44 L27.33 823.7 C26.96 823.08 26.4 822.65 25.78 822.4 L21.56 820.49 L19.83 818.93 L16.41          822.06 L13.06 818.9 L11.1 820.55 L7.03 822.42 C6.43 822.67 5.89 823.1 5.53 823.7 L0 832.95 L14.85          832.95 L16.38 822.71 L16.43 822.71 L17.96 832.95 L20.7 832.95 C19.75 833.08 18.86 833.61 18.18 834.3          C17.15 835.32 16.69 836.78 16.94 838.21 C17.02 838.67 17.35 839.05 17.8 839.19 C18.24 839.33 18.73          839.21 19.06 838.88 L20.51 837.43 L21.16 837.61 L21.33 838.26 L19.89 839.71 C19.56 840.04 19.44          840.52 19.58 840.97 C19.72 841.41 20.1 841.74 20.56 841.82 C20.81 841.87 21.07 841.89 21.32 841.89          C22.51 841.89 23.63 841.43 24.46 840.59 C25.55 839.5 25.98 837.93 25.65 836.47 L29.17 832.95 L32.86          832.95 L31.48 830.64 L33.15 828.97 C33.47 829.05 33.8 829.09 34.13 829.09 C35.32 829.09 36.43 828.62          37.27 827.78 C38.29 826.76 38.75 825.3 38.5 823.88 ZM36.25 826.98 C35.28 827.95 33.85 828.16 32.67          827.63 L24.09 836.2 C24.62 837.38 24.41 838.82 23.44 839.78 C22.68 840.55 21.62 840.84 20.63 840.67          L22.59 838.71 L22.04 836.67 L20 836.12 L18.04 838.07 C17.86 837.08 18.16 836.03 18.92 835.26 C19.89          834.3 21.33 834.08 22.5 834.62 L31.08 826.04 C30.55 824.86 30.76 823.43 31.73 822.46 C32.49 821.7          33.55 821.4 34.54 821.57 L32.58 823.53 L33.13 825.58 L35.18 826.13 L37.13 824.17 C37.31 825.16 37.01          826.21 36.25 826.98 Z" class="st16"/></g><g id="shape61-225" v:mID="61" v:groupContext="shape" transform="translate(8.98064,-22.5308)"><path d="M7.49 841.81 C11.9 841.72 14.82 837.58 14.8 831.4 C14.8 826.95 11.92 824.35 7.14 824.45 C2.54 824.56          0 827.11 0.05 831.57 C0.12 837.99 2.95 841.89 7.49 841.81 Z" class="st16"/></g></g></g><g id="group62-227" transform="translate(333.071,-668.139)" v:mID="62" v:groupContext="group" sv_v="qtbm" sv_l="sv_o4" class="sv_o"><title>qtbm</title><g id="shape63-228" v:mID="63" v:groupContext="shape"><path d="M36.27 822.98 C36.27 822.57 36.11 822.28 35.79 822.1 L30.98 819.81 C31.54 819.46 31.99 818.96 32.33 818.31         C32.67 817.66 32.83 816.93 32.83 816.11 C32.83 814.96 32.49 813.98 31.8 813.15 C31.11 812.33 30.26 811.92         29.26 811.92 C28.91 811.92 28.58 811.98 28.27 812.1 C27.96 812.21 27.68 812.36 27.41 812.54 C27.74 813.42         27.9 814.31 27.9 815.23 C27.9 816.67 27.52 817.97 26.75 819.15 C26.9 819.3 27.04 819.43 27.17 819.54         C27.3 819.66 27.44 819.77 27.59 819.85 L30.72 821.31 C31.16 821.54 31.51 821.87 31.78 822.3 C32.04 822.73         32.17 823.2 32.17 823.73 L32.17 827.79 L35.48 827.79 C35.71 827.79 35.9 827.69 36.05 827.5 C36.2 827.31         36.27 827.08 36.27 826.82 L36.27 822.98 ZM30.67 823.73 C30.67 823.2 30.47 822.85 30.06 822.67 L25.87         820.65 L24.11 819.81 C24.49 819.57 24.84 819.27 25.14 818.91 C25.45 818.54 25.71 818.12 25.92 817.65         C26.06 817.3 26.19 816.92 26.29 816.5 C26.39 816.09 26.44 815.67 26.44 815.23 C26.44 814.99 26.43 814.76         26.4 814.54 C26.37 814.32 26.33 814.09 26.27 813.86 C26 812.74 25.48 811.83 24.7 811.13 C23.92 810.42         23.02 810.07 21.99 810.07 C20.96 810.07 20.07 810.41 19.3 811.1 C18.54 811.8 18.03 812.67 17.76 813.73         C17.61 814.26 17.54 814.76 17.54 815.23 C17.54 816.11 17.73 816.96 18.11 817.78 C18.55 818.66 19.16         819.35 19.92 819.85 L18.25 820.65 L13.93 822.63 C13.49 822.84 13.27 823.2 13.27 823.73 L13.27 827.79         L13.27 828.49 C13.27 828.81 13.36 829.09 13.55 829.31 C13.74 829.53 13.99 829.64 14.28 829.64 L29.71         829.64 C29.97 829.64 30.2 829.53 30.39 829.31 C30.58 829.09 30.67 828.81 30.67 828.49 L30.67 827.79         L30.67 823.73 ZM11.81 823.73 C11.81 823.2 11.94 822.73 12.21 822.3 C12.47 821.87 12.83 821.54 13.27         821.31 L16.53 819.81 C16.82 819.63 17.06 819.43 17.23 819.19 C16.85 818.63 16.56 818.02 16.35 817.34         C16.15 816.67 16.04 815.96 16.04 815.23 C16.04 814.73 16.09 814.25 16.2 813.79 C16.3 813.34 16.42 812.9         16.57 812.49 C16.04 812.11 15.45 811.92 14.81 811.92 C13.81 811.92 12.96 812.33 12.27 813.15 C11.58         813.98 11.24 814.96 11.24 816.11 C11.24 816.93 11.41 817.67 11.77 818.33 C12.12 818.99 12.59 819.5 13.18         819.85 L8.29 822.1 C7.96 822.25 7.8 822.54 7.8 822.98 L7.8 826.82 C7.8 827.08 7.87 827.31 8.02 827.5         C8.17 827.69 8.36 827.79 8.59 827.79 L11.81 827.79 L11.81 823.73 ZM22.04 797.82 C25.06 797.82 27.92         798.4 30.61 799.56 C33.3 800.72 35.63 802.29 37.62 804.27 C39.6 806.26 41.17 808.59 42.33 811.28 C43.49         813.97 44.07 816.83 44.07 819.85 C44.07 821.88 43.81 823.83 43.28 825.72 C42.75 827.6 42.01 829.35 41.05         830.98 C40.1 832.61 38.95 834.1 37.62 835.43 C36.28 836.77 34.8 837.92 33.16 838.87 C31.53 839.83 29.78         840.57 27.9 841.1 C26.02 841.63 24.06 841.89 22.04 841.89 C20.01 841.89 18.06 841.63 16.17 841.1 C14.29         840.57 12.54 839.83 10.91 838.87 C9.28 837.92 7.79 836.77 6.46 835.43 C5.12 834.1 3.97 832.61 3.02 830.98         C2.06 829.35 1.32 827.6 0.79 825.72 C0.26 823.83 0 821.88 0 819.85 C0 817.83 0.26 815.87 0.79 813.99         C1.32 812.11 2.06 810.36 3.02 808.72 C3.97 807.09 5.12 805.61 6.46 804.27 C7.79 802.94 9.28 801.79 10.91         800.84 C12.54 799.88 14.29 799.14 16.17 798.61 C18.06 798.08 20.01 797.82 22.04 797.82 Z" class="st15"/></g></g><g id="group64-230" transform="translate(210.134,-267.443)" v:mID="64" v:groupContext="group" sv_o0="" style="visibility:hidden" class="sv_o03"><title></title><g id="group65-231" v:mID="65" v:groupContext="group"><g id="shape66-232" v:mID="66" v:groupContext="shape"><path d="M43.79 821.4 C43.7 820.88 43.32 820.45 42.82 820.29 C42.31 820.13 41.76 820.26 41.38 820.64 L39.74 822.29          L39 822.09 L38.8 821.34 L40.44 819.7 C40.82 819.32 40.95 818.77 40.79 818.27 C40.63 817.76 40.21          817.38 39.68 817.29 C38.07 817.01 36.4 817.54 35.24 818.7 C34 819.93 33.51 821.72 33.88 823.38 L32.95          824.32 L31.08 821.2 C30.66 820.5 30.03 820 29.32 819.73 L24.52 817.55 L22.56 815.77 L18.66 819.33          L14.85 815.74 L12.62 817.62 L7.99 819.75 C7.31 820.03 6.7 820.51 6.29 821.2 L0 831.72 L16.89 831.72          L18.63 820.08 L18.68 820.08 L20.43 831.72 L23.54 831.72 C22.47 831.87 21.45 832.48 20.67 833.26          C19.51 834.42 18.99 836.08 19.27 837.71 C19.36 838.23 19.74 838.66 20.24 838.82 C20.75 838.98 21.3          838.84 21.68 838.47 L23.32 836.82 L24.06 837.02 L24.26 837.76 L22.62 839.41 C22.24 839.78 22.11          840.34 22.27 840.84 C22.43 841.35 22.86 841.72 23.38 841.81 C23.67 841.86 23.96 841.89 24.25 841.89          C25.6 841.89 26.87 841.36 27.82 840.41 C29.06 839.18 29.55 837.39 29.18 835.72 L33.18 831.72 L37.37          831.72 L35.8 829.1 L37.7 827.2 C38.07 827.28 38.44 827.33 38.82 827.33 C40.17 827.33 41.43 826.8          42.39 825.85 C43.55 824.69 44.07 823.02 43.79 821.4 ZM41.23 824.93 C40.12 826.03 38.49 826.28 37.15          825.67 L27.4 835.42 C28.01 836.76 27.76 838.39 26.66 839.49 C25.79 840.36 24.59 840.7 23.47 840.5          L25.69 838.28 L25.07 835.95 L22.74 835.32 L20.51 837.55 C20.32 836.42 20.65 835.23 21.52 834.35          C22.62 833.25 24.25 833.01 25.59 833.62 L35.35 823.86 C34.74 822.52 34.98 820.89 36.09 819.79 C36.95          818.92 38.16 818.59 39.28 818.78 L37.06 821.01 L37.68 823.34 L40.01 823.96 L42.23 821.73 C42.43          822.86 42.1 824.06 41.23 824.93 Z" class="st17"/></g><g id="shape67-234" v:mID="67" v:groupContext="shape" transform="translate(10.2141,-25.6254)"><path d="M8.52 841.79 C13.54 841.7 16.85 836.99 16.84 829.95 C16.83 824.9 13.56 821.94 8.12 822.06 C2.89 822.18          0 825.08 0.05 830.15 C0.13 837.46 3.35 841.89 8.52 841.79 Z" class="st17"/></g></g></g><g id="group68-236" transform="translate(256.967,-273.605)" v:mID="68" v:groupContext="group" sv_o0="" style="visibility:hidden" class="sv_o04"><title></title><g id="shape69-237" v:mID="69" v:groupContext="shape"><path d="M36.27 822.98 C36.27 822.57 36.11 822.28 35.79 822.1 L30.98 819.81 C31.54 819.46 31.99 818.96 32.33 818.31         C32.67 817.66 32.83 816.93 32.83 816.11 C32.83 814.96 32.49 813.98 31.8 813.15 C31.11 812.33 30.26 811.92         29.26 811.92 C28.91 811.92 28.58 811.98 28.27 812.1 C27.96 812.21 27.68 812.36 27.41 812.54 C27.74 813.42         27.9 814.31 27.9 815.23 C27.9 816.67 27.52 817.97 26.75 819.15 C26.9 819.3 27.04 819.43 27.17 819.54         C27.3 819.66 27.44 819.77 27.59 819.85 L30.72 821.31 C31.16 821.54 31.51 821.87 31.78 822.3 C32.04 822.73         32.17 823.2 32.17 823.73 L32.17 827.79 L35.48 827.79 C35.71 827.79 35.9 827.69 36.05 827.5 C36.2 827.31         36.27 827.08 36.27 826.82 L36.27 822.98 ZM30.67 823.73 C30.67 823.2 30.47 822.85 30.06 822.67 L25.87         820.65 L24.11 819.81 C24.49 819.57 24.84 819.27 25.14 818.91 C25.45 818.54 25.71 818.12 25.92 817.65         C26.06 817.3 26.19 816.92 26.29 816.5 C26.39 816.09 26.44 815.67 26.44 815.23 C26.44 814.99 26.43 814.76         26.4 814.54 C26.37 814.32 26.33 814.09 26.27 813.86 C26 812.74 25.48 811.83 24.7 811.13 C23.92 810.42         23.02 810.07 21.99 810.07 C20.96 810.07 20.07 810.41 19.3 811.1 C18.54 811.8 18.03 812.67 17.76 813.73         C17.61 814.26 17.54 814.76 17.54 815.23 C17.54 816.11 17.73 816.96 18.11 817.78 C18.55 818.66 19.16         819.35 19.92 819.85 L18.25 820.65 L13.93 822.63 C13.49 822.84 13.27 823.2 13.27 823.73 L13.27 827.79         L13.27 828.49 C13.27 828.81 13.36 829.09 13.55 829.31 C13.74 829.53 13.99 829.64 14.28 829.64 L29.71         829.64 C29.97 829.64 30.2 829.53 30.39 829.31 C30.58 829.09 30.67 828.81 30.67 828.49 L30.67 827.79         L30.67 823.73 ZM11.81 823.73 C11.81 823.2 11.94 822.73 12.21 822.3 C12.47 821.87 12.83 821.54 13.27         821.31 L16.53 819.81 C16.82 819.63 17.06 819.43 17.23 819.19 C16.85 818.63 16.56 818.02 16.35 817.34         C16.15 816.67 16.04 815.96 16.04 815.23 C16.04 814.73 16.09 814.25 16.2 813.79 C16.3 813.34 16.42 812.9         16.57 812.49 C16.04 812.11 15.45 811.92 14.81 811.92 C13.81 811.92 12.96 812.33 12.27 813.15 C11.58         813.98 11.24 814.96 11.24 816.11 C11.24 816.93 11.41 817.67 11.77 818.33 C12.12 818.99 12.59 819.5 13.18         819.85 L8.29 822.1 C7.96 822.25 7.8 822.54 7.8 822.98 L7.8 826.82 C7.8 827.08 7.87 827.31 8.02 827.5         C8.17 827.69 8.36 827.79 8.59 827.79 L11.81 827.79 L11.81 823.73 ZM22.04 797.82 C25.06 797.82 27.92         798.4 30.61 799.56 C33.3 800.72 35.63 802.29 37.62 804.27 C39.6 806.26 41.17 808.59 42.33 811.28 C43.49         813.97 44.07 816.83 44.07 819.85 C44.07 821.88 43.81 823.83 43.28 825.72 C42.75 827.6 42.01 829.35 41.05         830.98 C40.1 832.61 38.95 834.1 37.62 835.43 C36.28 836.77 34.8 837.92 33.16 838.87 C31.53 839.83 29.78         840.57 27.9 841.1 C26.02 841.63 24.06 841.89 22.04 841.89 C20.01 841.89 18.06 841.63 16.17 841.1 C14.29         840.57 12.54 839.83 10.91 838.87 C9.28 837.92 7.79 836.77 6.46 835.43 C5.12 834.1 3.97 832.61 3.02 830.98         C2.06 829.35 1.32 827.6 0.79 825.72 C0.26 823.83 0 821.88 0 819.85 C0 817.83 0.26 815.87 0.79 813.99         C1.32 812.11 2.06 810.36 3.02 808.72 C3.97 807.09 5.12 805.61 6.46 804.27 C7.79 802.94 9.28 801.79 10.91         800.84 C12.54 799.88 14.29 799.14 16.17 798.61 C18.06 798.08 20.01 797.82 22.04 797.82 Z" class="st17"/></g></g><g id="group70-239" transform="translate(153.441,-264.362)" v:mID="70" v:groupContext="group" sv_o0="" style="visibility:hidden" class="sv_o02"><title></title><g id="shape71-240" v:mID="71" v:groupContext="shape" transform="translate(0,-16.0786)"><path d="M33.02 835.38 C33.02 835.38 33.02 835.38 33.02 835.38 C33 835.03 32.9 834.69 32.72 834.38 L28.68 827.62         C28.43 827.21 28.07 826.92 27.66 826.75 L24.89 825.47 L23.56 824.35 L21.27 826.63 L18.98 824.35 L17.65         825.47 L14.88 826.75 C14.46 826.92 14.1 827.21 13.86 827.62 L9.81 834.38 C9.63 834.69 9.53 835.03 9.52         835.38 L9.51 835.38 C9.51 835.38 9.51 835.38 9.51 835.38 L0 835.38 L0 841.89 L42.62 841.89 L42.62 835.38         L33.02 835.38 ZM20.07 835.38 L21.27 827.92 L22.46 835.38 L20.07 835.38 Z" class="st17"/></g><g id="shape72-242" v:mID="72" v:groupContext="shape" transform="translate(12.7466,-31.7898)"><path d="M6.16 839.46 C6.85 839.97 7.65 840.22 8.55 840.24 C8.55 840.24 8.55 840.24 8.55 840.24 C8.56 840.24 8.56         840.24 8.56 840.24 C8.56 840.24 8.56 840.24 8.56 840.24 C8.56 840.24 8.56 840.24 8.56 840.24 C8.56 840.24         8.57 840.24 8.57 840.24 C8.57 840.24 8.57 840.24 8.57 840.24 C9.47 840.22 10.27 839.97 10.96 839.46         C12.54 840.92 17.12 841.89 15.31 840.6 C13.16 839.07 13.42 834.03 13.42 834.03 C13.45 833.64 13.47 833.23         13.47 832.81 C13.47 832.66 13.46 832.5 13.45 832.35 C13.41 831.59 13.23 831.04 13.23 831.04 C12.64 829.03         10.99 827.88 8.57 827.86 C8.57 827.86 8.56 827.86 8.56 827.86 C8.56 827.86 8.55 827.86 8.55 827.86 C6.13         827.88 4.49 829.03 3.9 831.04 C3.9 831.04 3.71 831.59 3.67 832.35 C3.66 832.5 3.65 832.66 3.65 832.81         C3.65 833.18 3.67 833.52 3.69 833.86 C4.27 834.59 5.29 835.45 7 835.7 C7.18 835.52 7.42 835.42 7.69         835.42 L8.68 835.42 C9.23 835.42 9.67 835.86 9.67 836.41 C9.67 836.95 9.23 837.4 8.68 837.4 L7.69 837.4         C7.45 837.4 7.23 837.32 7.05 837.16 C5.58 837 4.47 836.45 3.66 835.81 C3.54 837.42 3.13 839.67 1.81         840.6 C0 841.89 4.58 840.92 6.16 839.46 Z" class="st17"/></g><g id="shape73-244" v:mID="73" v:groupContext="shape" transform="translate(2.71053,3.41061E-013)"><rect x="0" y="827.035" width="37.2006" height="14.8543" class="st17"/></g></g><g id="group74-246" transform="translate(313.043,-277.919)" v:mID="74" v:groupContext="group" sv_o0="" style="visibility:hidden" class="sv_o05"><title></title><g id="shape75-247" v:mID="75" v:groupContext="shape"><ellipse cx="22.7875" cy="819.101" rx="22.7875" ry="22.7875" class="st18"/></g><g id="shape76-251" v:mID="76" v:groupContext="shape" transform="translate(14.2045,-12.6192)"><path d="M18.06 839.8 C18.06 840.95 17.13 841.89 15.97 841.89 L2.09 841.89 C0.93 841.89 0 840.95 0 839.8 L0 825.92         C0 824.76 0.93 823.83 2.09 823.83 L15.97 823.83 C17.13 823.83 18.06 824.76 18.06 825.92 L18.06 839.8         Z" class="st5"/></g></g><g id="shape77-253" v:mID="77" v:groupContext="shape" v:layerMember="0" transform="translate(200.973,-577.558)"><title>动态连接线.77</title><path d="M7.09 841.89 L7.09 765.31" class="st19"/></g></g></svg>