<svg id="_1" data-name=" 1" xmlns="http://www.w3.org/2000/svg" viewBox="0 0 4064.45 724.58" width="%s" height="%s"><defs><style>.cls-1{fill:#8f0023;}</style></defs><title>logo-10-26</title><polygon class="cls-1" points="142.66 12.27 359.87 12.27 217.54 712.96 0 712.96 142.66 12.27"/><path class="cls-1" d="M1105.28,2673.71h181.39L1269.88,2757q50.83-50.83,96.83-72.62c30.66-14.52,65.84-21.95,105.86-21.95,53.9,0,92.63,16.14,116.51,48.09s29,81.66,15.49,148.47l-65.52,322.75H1343.15l56.8-278.86c6.46-32,5.16-54.22-3.87-67.46s-24.21-19.69-45.51-19.69c-23.56,0-44.22,9-62.29,26.79s-32,49.7-41.31,95.86l-49.38,243.36H1002.64Z" transform="translate(-674.73 -2468.76)"/><path class="cls-1" d="M1974.78,2673.71h93l-29,142.66h-93l-74.23,365.36H1676.55l74.23-365.36h-72.3l29-142.66h72.3l4.52-22.92c4.2-20.66,11-43.57,20.66-68.42,9.36-24.85,21.95-45.19,37.44-61s35.18-28.4,59.39-38.08,57.45-14.52,100.38-14.52c34.21,0,82.95,3.87,146.21,11.94l-45.51,117.16q-33.89-5.81-55.19-5.81-26.14,0-39.7,8.71c-8.71,5.81-16.14,15.17-21.95,28.08C1983.17,2636.27,1979.3,2651.11,1974.78,2673.71Z" transform="translate(-674.73 -2468.76)"/><path class="cls-1" d="M2162.94,2673.71h194.94l-103.28,508H2059.66ZM2202,2481h194.94l-27.11,132.65H2174.88Z" transform="translate(-674.73 -2468.76)"/><path class="cls-1" d="M2446,2673.71h181.39L2610.6,2757q50.83-50.83,96.83-72.62c30.66-14.52,65.84-21.95,105.54-21.95,53.9,0,92.63,16.14,116.51,48.09s29,81.66,15.49,148.47l-65.52,322.75H2683.54l56.8-278.86c6.46-32,5.16-54.22-3.87-67.46-9.36-13.23-24.21-19.69-45.51-19.69-23.56,0-44.22,9-62.61,26.79-18.07,17.75-32,49.7-41.31,95.86l-49.38,243.36H2342.72Z" transform="translate(-674.73 -2468.76)"/><path class="cls-1" d="M3185.1,2928.68c-9.36,45.19-6.78,78.75,7.1,100.38s34.86,32.6,62.61,32.6q42.12,0,75.52-32c22.27-21.3,38.41-55.51,47.77-102.64,9-43.89,6.46-76.82-7.42-98.12-13.88-21.62-34.21-32.28-61-32.28-28.4,0-53.9,11-76.82,32.6C3210.28,2850.9,3194.14,2884.14,3185.1,2928.68Zm-194.94.65q23.72-116.19,117.48-191.39c62.61-50,138.14-75.2,227.22-75.2,101.67,0,172.67,29.37,212.37,88.43,32.28,47.44,41,105.86,27.11,175.26q-23.72,117.16-116.84,192c-62,49.7-138.78,74.88-230.12,74.88q-122.48,0-185.26-62C2990.48,3079.73,2973.38,3012.28,2990.16,2929.33Z" transform="translate(-674.73 -2468.76)"/><polygon class="cls-1" points="2937.06 204.95 3139.75 204.95 3172.99 527.06 3340.5 204.95 3537.06 204.95 3218.18 712.96 3045.5 712.96 2937.06 204.95"/><path class="cls-1" d="M4526.14,2940c-28.73,9.68-58.1,18.07-88.43,25.5-41.64,10.65-68.75,21-81,31.31-12.91,10.65-20.66,22.59-23.56,35.83-3.23,15.49-.32,28.08,8.39,37.76s23.24,14.52,43.89,14.52c21.62,0,42.6-5.16,63.58-15.81q31-16,47.44-38.73c11-15.17,18.72-34.86,23.56-59.39Zm-147.5-102-181.71-19.37c13.56-32.6,28.73-58.1,45.83-76.49q25.66-28.08,66.81-48.41c20-10,45.83-17.43,78.43-22.92,32.28-5.49,66.49-8.07,103-8.07q87.63,0,138.46,9.68c33.89,6.46,60.68,20,80,41,13.56,14.2,22.59,34.53,26.79,61,4.2,26.14,3.87,51.32-1,75.2l-45.51,224.31q-7.26,35.83-6.78,56.16c0.32,13.56,3.55,31,9.36,52h-183c-4.52-13.23-7.42-23.24-8.39-30s-1-17.75,0-32.28c-30.34,24.53-59.39,42-86.5,52.61-37.12,14.2-78.43,21-123.94,21-60.35,0-103.6-14.2-129.1-42.28s-34.21-62.61-25.82-103.93c7.75-38.73,25.5-70.36,53.25-95.21s72.94-43.25,136.2-55.51c75.85-14.52,125.23-24.85,147.82-31a728.71,728.71,0,0,0,73.59-23.24c4.84-23.88,3.23-40.34-4.52-50-7.75-9.36-24.21-14.2-49.06-14.2-32,0-56.8,5.16-74.56,15.17C4403.82,2801.2,4390.91,2816,4378.65,2838Z" transform="translate(-674.73 -2468.76)"/></svg>